<svg width="512" height="512" style="color:#7cc504" xmlns="http://www.w3.org/2000/svg" class="h-full w-full"><rect width="512" height="512" rx="30" fill="transparent" paint-order="stroke"/><svg width="256" height="256" viewBox="0 0 256 256" fill="#7CC504" x="128" y="128" style="display:inline-block;vertical-align:middle" xmlns="http://www.w3.org/2000/svg"><g fill="none"><rect width="256" height="256" fill="#E14E1D" rx="60"/><path fill="#fff" d="m48 38 8.61 96.593h110.71l-3.715 41.43-35.646 9.638-35.579-9.624-2.379-26.602H57.94l4.585 51.281 65.427 18.172 65.51-18.172 8.783-98.061H85.824l-2.923-32.71h122.238L208 38H48Z"/><path fill="#EBEBEB" d="M128 38H48l8.61 96.593H128v-31.938H85.824l-2.923-32.71H128V38Zm0 147.647-.041.014-35.579-9.624-2.379-26.602H57.94l4.585 51.281 65.427 18.172.049-.014v-33.227Z"/></g></svg></svg>