<svg width="93" height="24" viewBox="0 0 93 24" fill="none" xmlns="http://www.w3.org/2000/svg">
<path d="M4.064 3.8H0.384V0.599998H11.264V3.8H7.584V23H4.064V3.8ZM16.0053 13.464L11.7493 0.599998H15.4933L17.8933 8.824H17.9573L20.3573 0.599998H23.7813L19.5253 13.464V23H16.0053V13.464ZM25.047 0.599998H30.071L32.311 16.632H32.375L34.615 0.599998H39.639V23H36.311V6.04H36.247L33.687 23H30.743L28.183 6.04H28.119V23H25.047V0.599998ZM47.0658 23.32C45.3591 23.32 44.0578 22.84 43.1618 21.88C42.2658 20.8987 41.8178 19.5013 41.8178 17.688V0.599998H45.3378V17.944C45.3378 18.712 45.4871 19.2667 45.7858 19.608C46.1058 19.9493 46.5538 20.12 47.1298 20.12C47.7058 20.12 48.1431 19.9493 48.4418 19.608C48.7618 19.2667 48.9218 18.712 48.9218 17.944V0.599998H52.3138V17.688C52.3138 19.5013 51.8658 20.8987 50.9698 21.88C50.0738 22.84 48.7724 23.32 47.0658 23.32ZM54.5008 0.599998H59.7168C61.5301 0.599998 62.8528 1.02667 63.6848 1.88C64.5168 2.712 64.9328 4.00267 64.9328 5.752V7.128C64.9328 9.45333 64.1648 10.9253 62.6288 11.544V11.608C63.4821 11.864 64.0794 12.3867 64.4208 13.176C64.7834 13.9653 64.9648 15.0213 64.9648 16.344V20.28C64.9648 20.92 64.9861 21.4427 65.0288 21.848C65.0714 22.232 65.1781 22.616 65.3488 23H61.7648C61.6368 22.6373 61.5514 22.296 61.5088 21.976C61.4661 21.656 61.4448 21.08 61.4448 20.248V16.152C61.4448 15.128 61.2741 14.4133 60.9328 14.008C60.6128 13.6027 60.0474 13.4 59.2368 13.4H58.0208V23H54.5008V0.599998ZM59.3008 10.2C60.0048 10.2 60.5274 10.0187 60.8688 9.656C61.2314 9.29333 61.4128 8.68533 61.4128 7.832V6.104C61.4128 5.29333 61.2634 4.70667 60.9648 4.344C60.6874 3.98133 60.2394 3.8 59.6208 3.8H58.0208V10.2H59.3008ZM71.892 0.599998H76.916L79.156 16.632H79.22L81.46 0.599998H86.484V23H83.156V6.04H83.092L80.532 23H77.588L75.028 6.04H74.964V23H71.892V0.599998ZM88.7908 19.608H92.1828V23H88.7908V19.608Z" fill="#C7C7C7"/>
</svg>
